<?xml version="1.0" encoding="UTF-8" standalone="no"?>
<svg
   xmlns:dc="http://purl.org/dc/elements/1.1/"
   xmlns:cc="http://creativecommons.org/ns#"
   xmlns:rdf="http://www.w3.org/1999/02/22-rdf-syntax-ns#"
   xmlns:svg="http://www.w3.org/2000/svg"
   xmlns="http://www.w3.org/2000/svg"
   xmlns:sodipodi="http://sodipodi.sourceforge.net/DTD/sodipodi-0.dtd"
   xmlns:inkscape="http://www.inkscape.org/namespaces/inkscape"
   version="1.0"
   width="520"
   height="120"
   id="svg3347"
   inkscape:version="0.91 r13725"
   viewBox="0 0 146.75556 33.866661"
   sodipodi:docname="header.svg"
   inkscape:export-filename="C:\Users\Christian\git\salma\artwork\header.png"
   inkscape:export-xdpi="90"
   inkscape:export-ydpi="90">
  <metadata
     id="metadata3436">
    <rdf:RDF>
      <cc:Work
         rdf:about="">
        <dc:format>image/svg+xml</dc:format>
        <dc:type
           rdf:resource="http://purl.org/dc/dcmitype/StillImage" />
        <dc:title></dc:title>
      </cc:Work>
    </rdf:RDF>
  </metadata>
  <sodipodi:namedview
     pagecolor="#ffffff"
     bordercolor="#666666"
     borderopacity="1"
     objecttolerance="10"
     gridtolerance="10"
     guidetolerance="10"
     inkscape:pageopacity="0"
     inkscape:pageshadow="2"
     inkscape:window-width="1920"
     inkscape:window-height="1137"
     id="namedview3434"
     inkscape:document-units="mm"
     showgrid="false"
     fit-margin-top="0"
     fit-margin-left="0"
     fit-margin-right="0"
     fit-margin-bottom="0"
     inkscape:zoom="1.1639402"
     inkscape:cx="443.41102"
     inkscape:cy="-17.309555"
     inkscape:window-x="-8"
     inkscape:window-y="-8"
     inkscape:window-maximized="1"
     inkscape:current-layer="svg3347"
     units="px" />
  <defs
     id="defs3349" />
  <path
     style="fill:#6b81be;fill-opacity:1;fill-rule:nonzero;stroke:none"
     d="m 130.24134,12.948492 -4.88206,7.158458 4.86823,0 z m -70.641973,0 -4.882433,7.158458 4.868226,0 z m 69.862383,-6.9476191 6.37131,0 0.82222,22.4725451 -6.23821,0 -0.1192,-3.920005 -8.06471,0 -2.88017,3.920005 -6.17502,0 z m -34.555412,0 5.774562,0 0.47038,11.9845501 8.87946,-11.9845501 5.83065,0 -4.24305,22.4725451 -5.84449,0 2.73249,-12.939682 -9.820585,12.939682 -2.325306,0 -0.779588,-12.939682 -6.308502,12.939682 -5.823549,0 z m -18.665268,0 5.844862,0 -5.985076,17.5972161 7.017796,0 -1.657888,4.875329 -12.855554,0 z m -17.421665,0 6.371691,0 0.821841,22.4725451 -6.238209,0 -0.119274,-3.920005 -8.064726,0 -2.880178,3.920005 -6.174646,0 z M 40.751634,5.4529538 c 2.42327,0 4.594154,0.6111466 6.504801,1.8264443 l -3.884484,4.5450999 c -0.934386,-0.997536 -2.05161,-1.496288 -3.350925,-1.496288 -0.625166,0 -1.243603,0.161564 -1.847831,0.477701 -0.681253,0.365265 -1.130685,0.849995 -1.334462,1.454149 -0.203778,0.597124 -0.0072,1.109934 0.582915,1.538426 0.259864,0.19671 1.138163,0.540926 2.620317,1.025582 1.861666,0.604228 3.041705,1.461215 3.547597,2.571334 0.435599,0.941116 0.400451,2.156302 -0.105443,3.638831 -1.292585,3.807459 -3.800357,6.280084 -7.530792,7.439185 -1.299316,0.407556 -2.619944,0.604228 -3.961884,0.604228 -2.809885,0 -5.128088,-0.849882 -6.947502,-2.550023 l 4.10247,-4.706698 c 1.215186,1.587596 2.669298,2.388496 4.348498,2.388496 0.758651,0 1.461216,-0.182839 2.114426,-0.533935 0.751547,-0.40045 1.250333,-0.962427 1.496362,-1.700139 0.23182,-0.660314 0.07703,-1.215186 -0.456909,-1.657887 -0.393348,-0.336889 -1.130685,-0.674149 -2.212762,-1.018515 -1.29969,-0.428492 -2.114426,-0.723503 -2.430375,-0.88503 -0.512996,-0.253132 -0.913446,-0.548143 -1.215559,-0.892134 -0.864093,-0.983741 -0.955325,-2.472998 -0.280803,-4.467923 0.709296,-2.086384 1.917752,-3.8144918 3.624622,-5.1843638 1.99515,-1.6086833 4.201181,-2.4165404 6.61772,-2.4165404 z"
     id="path3354"
     inkscape:connector-curvature="0" />
  <path
     style="fill:#287040;fill-opacity:1;stroke:#424242;stroke-width:0.53789127;stroke-linecap:round;stroke-linejoin:round;stroke-miterlimit:4;stroke-dasharray:none;stroke-opacity:1"
     d="m 130.24134,12.948492 -4.88206,7.158458 4.86823,0 z m -70.641973,0 -4.882433,7.158458 4.868226,0 z m 69.862383,-6.9476191 6.37131,0 0.82222,22.4725451 -6.23821,0 -0.1192,-3.920005 -8.06471,0 -2.88017,3.920005 -6.17502,0 z m -34.555412,0 5.774562,0 0.47038,11.9845501 8.87946,-11.9845501 5.83065,0 -4.24305,22.4725451 -5.84449,0 2.73249,-12.939682 -9.820585,12.939682 -2.325306,0 -0.779588,-12.939682 -6.308502,12.939682 -5.823549,0 z m -18.665268,0 5.844862,0 -5.985076,17.5972161 7.017796,0 -1.657888,4.875329 -12.855554,0 z m -17.421665,0 6.371691,0 0.821841,22.4725451 -6.238209,0 -0.119274,-3.920005 -8.064726,0 -2.880178,3.920005 -6.174646,0 z M 40.751634,5.4529538 c 2.42327,0 4.594154,0.6111466 6.504801,1.8264443 l -3.884484,4.5450999 c -0.934386,-0.997536 -2.05161,-1.496288 -3.350925,-1.496288 -0.625166,0 -1.243603,0.161564 -1.847831,0.477701 -0.681253,0.365265 -1.130685,0.849995 -1.334462,1.454149 -0.203778,0.597124 -0.0072,1.109934 0.582915,1.538426 0.259864,0.19671 1.138163,0.540926 2.620317,1.025582 1.861666,0.604228 3.041705,1.461215 3.547597,2.571334 0.435599,0.941116 0.400451,2.156302 -0.105443,3.638831 -1.292585,3.807459 -3.800357,6.280084 -7.530792,7.439185 -1.299316,0.407556 -2.619944,0.604228 -3.961884,0.604228 -2.809885,0 -5.128088,-0.849882 -6.947502,-2.550023 l 4.10247,-4.706698 c 1.215186,1.587596 2.669298,2.388496 4.348498,2.388496 0.758651,0 1.461216,-0.182839 2.114426,-0.533935 0.751547,-0.40045 1.250333,-0.962427 1.496362,-1.700139 0.23182,-0.660314 0.07703,-1.215186 -0.456909,-1.657887 -0.393348,-0.336889 -1.130685,-0.674149 -2.212762,-1.018515 -1.29969,-0.428492 -2.114426,-0.723503 -2.430375,-0.88503 -0.512996,-0.253132 -0.913446,-0.548143 -1.215559,-0.892134 -0.864093,-0.983741 -0.955325,-2.472998 -0.280803,-4.467923 0.709296,-2.086384 1.917752,-3.8144918 3.624622,-5.1843638 1.99515,-1.6086833 4.201181,-2.4165404 6.61772,-2.4165404 z"
     id="path3356"
     inkscape:connector-curvature="0" />
  <path
     style="fill:#000000;fill-opacity:1;fill-rule:evenodd;stroke:none"
     d="m 11.746118,2.1939701 0,29.4787199 1.542029,0 0,-29.4787199 -1.542029,0 z"
     id="path3408"
     inkscape:connector-curvature="0" />
  <path
     style="fill:#000000;fill-opacity:1;fill-rule:evenodd;stroke:none"
     d="m 17.50071,14.473767 0,17.198923 1.542029,0 0,-17.198923 -1.542029,0 z"
     id="path3410"
     inkscape:connector-curvature="0" />
  <path
     style="fill:#000000;fill-opacity:1;fill-rule:evenodd;stroke:none"
     d="m 5.9916327,13.325566 0,18.347124 1.542031,0 0,-18.347124 -1.542031,0 z"
     id="path3412"
     inkscape:connector-curvature="0" />
  <path
     style="fill:#000000;fill-opacity:1;fill-rule:evenodd;stroke:none"
     d="m 8.8050641,7.1070705 0,24.5656195 1.5420289,0 0,-24.5656195 -1.5420289,0 z"
     id="path3414"
     inkscape:connector-curvature="0" />
  <path
     style="fill:#000000;fill-opacity:1;fill-rule:evenodd;stroke:none"
     d="m 14.559601,9.5611822 0,22.1115078 1.54203,0 0,-22.1115078 -1.54203,0 z"
     id="path3416"
     inkscape:connector-curvature="0" />
  <path
     style="fill:#000000;fill-opacity:1;fill-rule:evenodd;stroke:none"
     d="m 20.441817,21.479525 0,10.193165 1.546924,0 0,-10.193165 -1.546924,0 z"
     id="path3418"
     inkscape:connector-curvature="0" />
  <path
     style="fill:#000000;fill-opacity:1;fill-rule:evenodd;stroke:none"
     d="m 3.168038,23.518157 0,8.154533 1.5419753,0 0,-8.154533 -1.5419753,0 z"
     id="path3420"
     inkscape:connector-curvature="0" />
  <path
     style="fill:#000000;fill-opacity:1;fill-rule:evenodd;stroke:none"
     d="m 23.382927,27.595425 0,4.077265 1.546922,0 0,-4.077265 -1.546922,0 z"
     id="path3424"
     inkscape:connector-curvature="0" />
  <path
     style="fill:#000000;fill-opacity:1;fill-rule:evenodd;stroke:none"
     d="m 26.328927,29.564018 0,2.038634 1.542031,0 0,-2.038634 -1.542031,0 z"
     id="path3426"
     inkscape:connector-curvature="0" />
  <text
     xml:space="preserve"
     style="font-style:normal;font-weight:normal;font-size:8.69814014px;line-height:125%;font-family:Sans;letter-spacing:0px;word-spacing:0px;fill:#000000;fill-opacity:1;stroke:none;stroke-width:1px;stroke-linecap:butt;stroke-linejoin:miter;stroke-opacity:1"
     x="179.46725"
     y="10.23471"
     id="text4144"
     sodipodi:linespacing="125%"
     transform="scale(0.77071148,1.2975024)"><tspan
       sodipodi:role="line"
       id="tspan4146"
       x="179.46725"
       y="10.23471">⊨</tspan></text>
</svg>
