<?xml version="1.0" encoding="UTF-8" standalone="no"?>
<svg
   xmlns:osb="http://www.openswatchbook.org/uri/2009/osb"
   xmlns:dc="http://purl.org/dc/elements/1.1/"
   xmlns:cc="http://creativecommons.org/ns#"
   xmlns:rdf="http://www.w3.org/1999/02/22-rdf-syntax-ns#"
   xmlns:svg="http://www.w3.org/2000/svg"
   xmlns="http://www.w3.org/2000/svg"
   xmlns:sodipodi="http://sodipodi.sourceforge.net/DTD/sodipodi-0.dtd"
   xmlns:inkscape="http://www.inkscape.org/namespaces/inkscape"
   version="1.0"
   width="95.588676mm"
   height="18.733322mm"
   id="svg3347"
   inkscape:version="0.91 r13725"
   viewBox="0 0 95.588674 18.733321"
   sodipodi:docname="logo-2.svg">
  <metadata
     id="metadata3436">
    <rdf:RDF>
      <cc:Work
         rdf:about="">
        <dc:format>image/svg+xml</dc:format>
        <dc:type
           rdf:resource="http://purl.org/dc/dcmitype/StillImage" />
        <dc:title></dc:title>
      </cc:Work>
    </rdf:RDF>
  </metadata>
  <sodipodi:namedview
     pagecolor="#ffffff"
     bordercolor="#666666"
     borderopacity="1"
     objecttolerance="10"
     gridtolerance="10"
     guidetolerance="10"
     inkscape:pageopacity="0"
     inkscape:pageshadow="2"
     inkscape:window-width="1920"
     inkscape:window-height="1137"
     id="namedview3434"
     inkscape:document-units="mm"
     showgrid="false"
     fit-margin-top="0"
     fit-margin-left="0"
     fit-margin-right="0"
     fit-margin-bottom="0"
     inkscape:zoom="2.3278803"
     inkscape:cx="182.85747"
     inkscape:cy="-49.519025"
     inkscape:window-x="-8"
     inkscape:window-y="-8"
     inkscape:window-maximized="1"
     inkscape:current-layer="svg3347" />
  <defs
     id="defs3349">
    <linearGradient
       id="linearGradient5867-7"
       inkscape:collect="always"
       osb:paint="gradient">
      <stop
         id="stop5877"
         offset="0"
         style="stop-color:#f34d22;stop-opacity:1;" />
      <stop
         id="stop5879"
         offset="1"
         style="stop-color:#0066cc;stop-opacity:0;" />
    </linearGradient>
  </defs>
  <path
     style="fill:#ffffff;fill-opacity:1;fill-rule:nonzero;stroke:none"
     d="m 90.747428,5.6576247 -3.68498,5.4032003 3.67454,0 z m -53.320528,0 -3.685258,5.4032003 3.674534,0 z m 52.732098,-5.2440557 4.80906,0 0.62061,16.962261 -4.7086,0 -0.09,-2.958818 -6.08725,0 -2.17395,2.958818 -4.6609,0 z m -26.082418,0 4.35864,0 0.355036,9.0459277 6.702213,-9.0459277 4.400969,0 -3.202653,16.962261 -4.411416,0 2.06248,-9.7668654 -7.412567,9.7668654 -1.75514,0 -0.588433,-9.7668654 -4.761653,9.7668654 -4.395611,0 z m -14.088533,0 4.411698,0 -4.517532,13.282365 5.297029,0 -1.251373,3.679896 -9.703364,0 z m -13.149862,0 4.809348,0 0.620325,16.962261 -4.708596,0 -0.09003,-2.958818 -6.087251,0 -2.173957,2.958818 -4.660618,0 z M 23.200642,0 c 1.829083,0 3.467665,0.461293 4.90982,1.3785991 l -2.932006,3.430637 c -0.705274,-0.75294 -1.548554,-1.129397 -2.529276,-1.129397 -0.471875,0 -0.938671,0.121949 -1.394742,0.360568 -0.514209,0.275702 -0.85344,0.641575 -1.007251,1.09759 -0.153811,0.4507086 -0.0054,0.8377766 0.439984,1.1612026 0.196145,0.148477 0.859085,0.408291 1.977814,0.774108 1.405184,0.456071 2.295877,1.102924 2.677724,1.940842 0.328789,0.7103534 0.30226,1.6275753 -0.07959,2.7465873 -0.975642,2.873868 -2.868506,4.740204 -5.684237,5.615093 -0.980723,0.307622 -1.977532,0.456071 -2.990427,0.456071 -2.1209,0 -3.870678,-0.641491 -5.243971,-1.924756 l 3.096542,-3.552613 c 0.917222,1.198316 2.014784,1.802836 3.282244,1.802836 0.572629,0 1.102925,-0.138007 1.595967,-0.403014 0.567267,-0.30226 0.943751,-0.72644 1.129453,-1.283264 0.174978,-0.498405 0.05814,-0.917222 -0.344875,-1.251373 -0.296898,-0.254283 -0.85344,-0.508847 -1.670191,-0.768774 -0.981005,-0.323426 -1.595967,-0.5461 -1.834445,-0.66802 C 16.21197,9.5918587 15.90971,9.3691847 15.681675,9.1095407 15.029459,8.3670137 14.960597,7.2429227 15.469726,5.7371547 16.005102,4.1623551 16.917244,2.8579801 18.205588,1.8240031 19.711526,0.60977005 21.376637,0 23.200639,0 Z"
     id="path3354"
     inkscape:connector-curvature="0" />
  <path
     style="opacity:1;fill:#0066cc;fill-opacity:1;stroke:none;stroke-width:0.80599993;stroke-linecap:round;stroke-linejoin:round;stroke-miterlimit:4;stroke-dasharray:none;stroke-opacity:1"
     d="m 90.747428,5.6576247 -3.68498,5.4032003 3.67454,0 z m -53.320528,0 -3.685258,5.4032003 3.674534,0 z m 52.732098,-5.2440557 4.80906,0 0.62061,16.962261 -4.7086,0 -0.09,-2.958818 -6.08725,0 -2.17395,2.958818 -4.6609,0 z m -26.082418,0 4.35864,0 0.355036,9.0459277 6.702213,-9.0459277 4.400969,0 -3.202653,16.962261 -4.411416,0 2.06248,-9.7668654 -7.412567,9.7668654 -1.75514,0 -0.588433,-9.7668654 -4.761653,9.7668654 -4.395611,0 z m -14.088533,0 4.411698,0 -4.517532,13.282365 5.297029,0 -1.251373,3.679896 -9.703364,0 z m -13.149862,0 4.809348,0 0.620325,16.962261 -4.708596,0 -0.09003,-2.958818 -6.087251,0 -2.173957,2.958818 -4.660618,0 z M 23.200642,0 c 1.829083,0 3.467665,0.461293 4.90982,1.3785991 l -2.932006,3.430637 c -0.705274,-0.75294 -1.548554,-1.129397 -2.529276,-1.129397 -0.471875,0 -0.938671,0.121949 -1.394742,0.360568 -0.514209,0.275702 -0.85344,0.641575 -1.007251,1.09759 -0.153811,0.4507086 -0.0054,0.8377766 0.439984,1.1612026 0.196145,0.148477 0.859085,0.408291 1.977814,0.774108 1.405184,0.456071 2.295877,1.102924 2.677724,1.940842 0.328789,0.7103534 0.30226,1.6275753 -0.07959,2.7465873 -0.975642,2.873868 -2.868506,4.740204 -5.684237,5.615093 -0.980723,0.307622 -1.977532,0.456071 -2.990427,0.456071 -2.1209,0 -3.870678,-0.641491 -5.243971,-1.924756 l 3.096542,-3.552613 c 0.917222,1.198316 2.014784,1.802836 3.282244,1.802836 0.572629,0 1.102925,-0.138007 1.595967,-0.403014 0.567267,-0.30226 0.943751,-0.72644 1.129453,-1.283264 0.174978,-0.498405 0.05814,-0.917222 -0.344875,-1.251373 -0.296898,-0.254283 -0.85344,-0.508847 -1.670191,-0.768774 -0.981005,-0.323426 -1.595967,-0.5461 -1.834445,-0.66802 C 16.21197,9.5918587 15.90971,9.3691847 15.681675,9.1095407 15.029459,8.3670137 14.960597,7.2429227 15.469726,5.7371547 16.005102,4.1623551 16.917244,2.8579801 18.205588,1.8240031 19.711526,0.60977005 21.376637,0 23.200639,0 Z"
     id="path3356"
     inkscape:connector-curvature="0" />
  <path
     style="fill:#0066cc;fill-opacity:1;fill-rule:evenodd;stroke:none"
     d="m 4.453975,4.2418851 0,14.4914339 0.800664,0 0,-14.4914339 -0.800664,0 z"
     id="path3408"
     inkscape:connector-curvature="0" />
  <path
     style="fill:#0066cc;fill-opacity:1;fill-rule:evenodd;stroke:none"
     d="m 7.441918,10.278505 0,8.454814 0.800664,0 0,-8.454814 -0.800664,0 z"
     id="path3410"
     inkscape:connector-curvature="0" />
  <path
     style="fill:#0066cc;fill-opacity:1;fill-rule:evenodd;stroke:none"
     d="m 1.466088,9.7140611 0,9.0192579 0.800665,0 0,-9.0192579 -0.800665,0 z"
     id="path3412"
     inkscape:connector-curvature="0" />
  <path
     style="fill:#0066cc;fill-opacity:1;fill-rule:evenodd;stroke:none"
     d="m 2.926899,6.6571147 0,12.0762043 0.800664,0 0,-12.0762043 -0.800664,0 z"
     id="path3414"
     inkscape:connector-curvature="0" />
  <path
     style="fill:#0066cc;fill-opacity:1;fill-rule:evenodd;stroke:none"
     d="m 5.914813,7.8635296 0,10.8697894 0.800665,0 0,-10.8697894 -0.800665,0 z"
     id="path3416"
     inkscape:connector-curvature="0" />
  <path
     style="fill:#0066cc;fill-opacity:1;fill-rule:evenodd;stroke:none"
     d="m 8.969022,13.722463 0,5.010856 0.803205,0 0,-5.010856 -0.803205,0 z"
     id="path3418"
     inkscape:connector-curvature="0" />
  <path
     style="fill:#0066cc;fill-opacity:1;fill-rule:evenodd;stroke:none"
     d="m 0,14.724634 0,4.008685 0.800636,0 0,-4.008685 -0.800636,0 z"
     id="path3420"
     inkscape:connector-curvature="0" />
  <path
     style="fill:#0066cc;fill-opacity:1;fill-rule:evenodd;stroke:none"
     d="m 10.496127,16.728977 0,2.004342 0.803204,0 0,-2.004342 -0.803204,0 z"
     id="path3424"
     inkscape:connector-curvature="0" />
  <path
     style="fill:#0066cc;fill-opacity:1;fill-rule:evenodd;stroke:none"
     d="m 12.025771,17.696717 0,1.002171 0.800665,0 0,-1.002171 -0.800665,0 z"
     id="path3426"
     inkscape:connector-curvature="0" />
</svg>
