<?xml version="1.0" encoding="UTF-8" standalone="no"?>
<svg
   xmlns:dc="http://purl.org/dc/elements/1.1/"
   xmlns:cc="http://creativecommons.org/ns#"
   xmlns:rdf="http://www.w3.org/1999/02/22-rdf-syntax-ns#"
   xmlns:svg="http://www.w3.org/2000/svg"
   xmlns="http://www.w3.org/2000/svg"
   xmlns:sodipodi="http://sodipodi.sourceforge.net/DTD/sodipodi-0.dtd"
   xmlns:inkscape="http://www.inkscape.org/namespaces/inkscape"
   version="1.0"
   width="110.35305mm"
   height="22.250521mm"
   id="svg3347"
   inkscape:version="0.91 r13725"
   viewBox="0 0 110.35305 22.25052"
   sodipodi:docname="logo.svg">
  <metadata
     id="metadata3436">
    <rdf:RDF>
      <cc:Work
         rdf:about="">
        <dc:format>image/svg+xml</dc:format>
        <dc:type
           rdf:resource="http://purl.org/dc/dcmitype/StillImage" />
        <dc:title></dc:title>
      </cc:Work>
    </rdf:RDF>
  </metadata>
  <sodipodi:namedview
     pagecolor="#ffffff"
     bordercolor="#666666"
     borderopacity="1"
     objecttolerance="10"
     gridtolerance="10"
     guidetolerance="10"
     inkscape:pageopacity="0"
     inkscape:pageshadow="2"
     inkscape:window-width="1920"
     inkscape:window-height="1137"
     id="namedview3434"
     inkscape:document-units="mm"
     showgrid="false"
     fit-margin-top="0"
     fit-margin-left="0"
     fit-margin-right="0"
     fit-margin-bottom="0"
     inkscape:zoom="1.1639402"
     inkscape:cx="232.31"
     inkscape:cy="-30.921285"
     inkscape:window-x="-8"
     inkscape:window-y="-8"
     inkscape:window-maximized="1"
     inkscape:current-layer="svg3347" />
  <defs
     id="defs3349" />
  <path
     style="fill:#6b81be;fill-opacity:1;fill-rule:nonzero;stroke:none"
     d="m 95.914862,8.1175037 -3.68498,5.4032003 3.67454,0 z m -53.320528,0 -3.685258,5.4032003 3.674534,0 z m 52.732098,-5.2440556 4.809058,0 0.62061,16.9622609 -4.708598,0 -0.09,-2.958818 -6.08725,0 -2.17395,2.958818 -4.6609,0 z m -26.082418,0 4.35864,0 0.355036,9.0459279 6.702213,-9.0459279 4.400969,0 -3.202653,16.9622609 -4.411416,0 2.06248,-9.766865 -7.412567,9.766865 -1.75514,0 -0.588433,-9.766865 -4.761653,9.766865 -4.395611,0 z m -14.088533,0 4.411698,0 -4.517532,13.2823649 5.297029,0 -1.251373,3.679896 -9.703364,0 z m -13.149862,0 4.809348,0 0.620325,16.9622609 -4.708596,0 -0.09003,-2.958818 -6.087251,0 -2.173957,2.958818 -4.660618,0 z M 28.368076,2.4598791 c 1.829083,0 3.467665,0.461293 4.90982,1.378599 l -2.932006,3.430637 c -0.705274,-0.75294 -1.548554,-1.129397 -2.529276,-1.129397 -0.471875,0 -0.938671,0.121949 -1.394742,0.360568 -0.514209,0.275702 -0.85344,0.641575 -1.007251,1.09759 -0.153811,0.4507086 -0.0054,0.8377766 0.439984,1.1612026 0.196145,0.148477 0.859085,0.408291 1.977814,0.774108 1.405184,0.456071 2.295877,1.1029243 2.677724,1.9408423 0.328789,0.710353 0.30226,1.627575 -0.07959,2.746587 -0.975642,2.873868 -2.868506,4.740204 -5.684237,5.615093 -0.980723,0.307622 -1.977532,0.456071 -2.990427,0.456071 -2.1209,0 -3.870678,-0.641491 -5.243971,-1.924756 l 3.096542,-3.552613 c 0.917222,1.198316 2.014784,1.802836 3.282244,1.802836 0.572629,0 1.102925,-0.138007 1.595967,-0.403014 0.567267,-0.30226 0.943751,-0.72644 1.129453,-1.283264 0.174978,-0.498405 0.05814,-0.917222 -0.344875,-1.251373 -0.296898,-0.254283 -0.85344,-0.508847 -1.670191,-0.768774 -0.981005,-0.323426 -1.595967,-0.5461 -1.834445,-0.66802 -0.387209,-0.191064 -0.689469,-0.413738 -0.917504,-0.673382 -0.652216,-0.742527 -0.721078,-1.8666183 -0.211949,-3.3723863 0.535376,-1.5747996 1.447518,-2.8791746 2.735862,-3.9131516 1.505938,-1.214233 3.171049,-1.824003 4.995051,-1.824003 z"
     id="path3354"
     inkscape:connector-curvature="0" />
  <path
     style="fill:#287040;fill-opacity:1;stroke:#424242;stroke-width:0.40600002;stroke-linecap:round;stroke-linejoin:round;stroke-miterlimit:4;stroke-dasharray:none;stroke-opacity:1"
     d="m 95.914862,8.1175037 -3.68498,5.4032003 3.67454,0 z m -53.320528,0 -3.685258,5.4032003 3.674534,0 z m 52.732098,-5.2440556 4.809058,0 0.62061,16.9622609 -4.708598,0 -0.09,-2.958818 -6.08725,0 -2.17395,2.958818 -4.6609,0 z m -26.082418,0 4.35864,0 0.355036,9.0459279 6.702213,-9.0459279 4.400969,0 -3.202653,16.9622609 -4.411416,0 2.06248,-9.766865 -7.412567,9.766865 -1.75514,0 -0.588433,-9.766865 -4.761653,9.766865 -4.395611,0 z m -14.088533,0 4.411698,0 -4.517532,13.2823649 5.297029,0 -1.251373,3.679896 -9.703364,0 z m -13.149862,0 4.809348,0 0.620325,16.9622609 -4.708596,0 -0.09003,-2.958818 -6.087251,0 -2.173957,2.958818 -4.660618,0 z M 28.368076,2.4598791 c 1.829083,0 3.467665,0.461293 4.90982,1.378599 l -2.932006,3.430637 c -0.705274,-0.75294 -1.548554,-1.129397 -2.529276,-1.129397 -0.471875,0 -0.938671,0.121949 -1.394742,0.360568 -0.514209,0.275702 -0.85344,0.641575 -1.007251,1.09759 -0.153811,0.4507086 -0.0054,0.8377766 0.439984,1.1612026 0.196145,0.148477 0.859085,0.408291 1.977814,0.774108 1.405184,0.456071 2.295877,1.1029243 2.677724,1.9408423 0.328789,0.710353 0.30226,1.627575 -0.07959,2.746587 -0.975642,2.873868 -2.868506,4.740204 -5.684237,5.615093 -0.980723,0.307622 -1.977532,0.456071 -2.990427,0.456071 -2.1209,0 -3.870678,-0.641491 -5.243971,-1.924756 l 3.096542,-3.552613 c 0.917222,1.198316 2.014784,1.802836 3.282244,1.802836 0.572629,0 1.102925,-0.138007 1.595967,-0.403014 0.567267,-0.30226 0.943751,-0.72644 1.129453,-1.283264 0.174978,-0.498405 0.05814,-0.917222 -0.344875,-1.251373 -0.296898,-0.254283 -0.85344,-0.508847 -1.670191,-0.768774 -0.981005,-0.323426 -1.595967,-0.5461 -1.834445,-0.66802 -0.387209,-0.191064 -0.689469,-0.413738 -0.917504,-0.673382 -0.652216,-0.742527 -0.721078,-1.8666183 -0.211949,-3.3723863 0.535376,-1.5747996 1.447518,-2.8791746 2.735862,-3.9131516 1.505938,-1.214233 3.171049,-1.824003 4.995051,-1.824003 z"
     id="path3356"
     inkscape:connector-curvature="0" />
  <path
     style="fill:#000000;fill-opacity:1;fill-rule:evenodd;stroke:none"
     d="m 6.4747295,0 0,22.250518 1.1639227,0 0,-22.250518 -1.1639227,0 z"
     id="path3408"
     inkscape:connector-curvature="0" />
  <path
     style="fill:#000000;fill-opacity:1;fill-rule:evenodd;stroke:none"
     d="m 10.818293,9.2687812 0,12.9817368 1.163923,0 0,-12.9817368 -1.163923,0 z"
     id="path3410"
     inkscape:connector-curvature="0" />
  <path
     style="fill:#000000;fill-opacity:1;fill-rule:evenodd;stroke:none"
     d="m 2.1312476,8.402119 0,13.848399 1.1639241,0 0,-13.848399 -1.1639241,0 z"
     id="path3412"
     inkscape:connector-curvature="0" />
  <path
     style="fill:#000000;fill-opacity:1;fill-rule:evenodd;stroke:none"
     d="m 4.2548239,3.7084053 0,18.5421127 1.1639228,0 0,-18.5421127 -1.1639228,0 z"
     id="path3414"
     inkscape:connector-curvature="0" />
  <path
     style="fill:#000000;fill-opacity:1;fill-rule:evenodd;stroke:none"
     d="m 8.5983451,5.5607657 0,16.6897523 1.1639242,0 0,-16.6897523 -1.1639242,0 z"
     id="path3416"
     inkscape:connector-curvature="0" />
  <path
     style="fill:#000000;fill-opacity:1;fill-rule:evenodd;stroke:none"
     d="m 13.038239,14.556722 0,7.693796 1.167617,0 0,-7.693796 -1.167617,0 z"
     id="path3418"
     inkscape:connector-curvature="0" />
  <path
     style="fill:#000000;fill-opacity:1;fill-rule:evenodd;stroke:none"
     d="m 0,16.095481 0,6.155037 1.1638821,0 0,-6.155037 -1.1638821,0 z"
     id="path3420"
     inkscape:connector-curvature="0" />
  <path
     style="fill:#000000;fill-opacity:1;fill-rule:evenodd;stroke:none"
     d="m 15.258187,19.173 0,3.077518 1.167615,0 0,-3.077518 -1.167615,0 z"
     id="path3424"
     inkscape:connector-curvature="0" />
  <path
     style="fill:#000000;fill-opacity:1;fill-rule:evenodd;stroke:none"
     d="m 17.481826,20.658893 0,1.538759 1.163924,0 0,-1.538759 -1.163924,0 z"
     id="path3426"
     inkscape:connector-curvature="0" />
  <text
     xml:space="preserve"
     style="font-style:normal;font-weight:normal;font-size:6.56535101px;line-height:125%;font-family:Sans;letter-spacing:0px;word-spacing:0px;fill:#000000;fill-opacity:1;stroke:none;stroke-width:1px;stroke-linecap:butt;stroke-linejoin:miter;stroke-opacity:1"
     x="132.35916"
     y="6.4488511"
     id="text4144"
     sodipodi:linespacing="125%"
     transform="scale(0.77071148,1.2975024)"><tspan
       sodipodi:role="line"
       id="tspan4146"
       x="132.35916"
       y="6.4488511">⊨</tspan></text>
</svg>
